<?xml version="1.0" encoding="UTF-8" standalone="no"?>
<!DOCTYPE svg PUBLIC "-//W3C//DTD SVG 1.1//EN"
 "http://www.w3.org/Graphics/SVG/1.1/DTD/svg11.dtd">
<!-- Generated by graphviz version 2.47.3 (20210619.1520)
 -->
<!-- Title: dependencies Pages: 1 -->
<svg width="1160pt" height="247pt"
 viewBox="0.00 0.00 1160.00 246.80" xmlns="http://www.w3.org/2000/svg" xmlns:xlink="http://www.w3.org/1999/xlink">
<g id="graph0" class="graph" transform="scale(1 1) rotate(0) translate(4 242.8)">
<title>dependencies</title>
<polygon fill="white" stroke="transparent" points="-4,4 -4,-242.8 1156,-242.8 1156,4 -4,4"/>
<text text-anchor="middle" x="576" y="-8.2" font-family="sans-serif" font-size="14.00">dependencies</text>
<g id="clust1" class="cluster">
<title>cluster_AppModule</title>
<polygon fill="none" stroke="black" stroke-dasharray="1,5" points="8,-32.8 8,-230.8 1144,-230.8 1144,-32.8 8,-32.8"/>
</g>
<g id="clust12" class="cluster">
<title>cluster_AppModule_bootstrap</title>
<polygon fill="none" stroke="black" points="522,-170.8 522,-222.8 646,-222.8 646,-170.8 522,-170.8"/>
</g>
<g id="clust10" class="cluster">
<title>cluster_AppModule_imports</title>
<polygon fill="none" stroke="black" points="992,-40.8 992,-92.8 1136,-92.8 1136,-40.8 992,-40.8"/>
</g>
<g id="clust2" class="cluster">
<title>cluster_AppModule_declarations</title>
<polygon fill="none" stroke="black" points="16,-40.8 16,-92.8 984,-92.8 984,-40.8 16,-40.8"/>
</g>
<!-- AccountComponent -->
<g id="node1" class="node">
<title>AccountComponent</title>
<polygon fill="#ffffb3" stroke="black" points="976.26,-84.8 847.74,-84.8 847.74,-48.8 976.26,-48.8 976.26,-84.8"/>
<text text-anchor="middle" x="912" y="-62.6" font-family="Times,serif" font-size="14.00">AccountComponent</text>
</g>
<!-- AppModule -->
<g id="node8" class="node">
<title>AppModule</title>
<polygon fill="#8dd3c7" stroke="black" points="625.66,-149.8 622.66,-153.8 601.66,-153.8 598.66,-149.8 542.34,-149.8 542.34,-113.8 625.66,-113.8 625.66,-149.8"/>
<text text-anchor="middle" x="584" y="-127.6" font-family="Times,serif" font-size="14.00">AppModule</text>
</g>
<!-- AccountComponent&#45;&gt;AppModule -->
<g id="edge1" class="edge">
<title>AccountComponent&#45;&gt;AppModule</title>
<path fill="none" stroke="black" d="M912,-84.91C912,-104.14 912,-131.8 912,-131.8 912,-131.8 635.87,-131.8 635.87,-131.8"/>
<polygon fill="black" stroke="black" points="635.87,-128.3 625.87,-131.8 635.87,-135.3 635.87,-128.3"/>
</g>
<!-- AppComponent -->
<g id="node2" class="node">
<title>AppComponent</title>
<polygon fill="#ffffb3" stroke="black" points="829.94,-84.8 724.06,-84.8 724.06,-48.8 829.94,-48.8 829.94,-84.8"/>
<text text-anchor="middle" x="777" y="-62.6" font-family="Times,serif" font-size="14.00">AppComponent</text>
</g>
<!-- AppComponent&#45;&gt;AppModule -->
<g id="edge2" class="edge">
<title>AppComponent&#45;&gt;AppModule</title>
<path fill="none" stroke="black" d="M777,-84.83C777,-101.2 777,-122.8 777,-122.8 777,-122.8 635.88,-122.8 635.88,-122.8"/>
<polygon fill="black" stroke="black" points="635.88,-119.3 625.88,-122.8 635.88,-126.3 635.88,-119.3"/>
</g>
<!-- HomeComponent -->
<g id="node3" class="node">
<title>HomeComponent</title>
<polygon fill="#ffffb3" stroke="black" points="706.55,-84.8 591.45,-84.8 591.45,-48.8 706.55,-48.8 706.55,-84.8"/>
<text text-anchor="middle" x="649" y="-62.6" font-family="Times,serif" font-size="14.00">HomeComponent</text>
</g>
<!-- HomeComponent&#45;&gt;AppModule -->
<g id="edge3" class="edge">
<title>HomeComponent&#45;&gt;AppModule</title>
<path fill="none" stroke="black" d="M608.53,-84.91C608.53,-84.91 608.53,-103.79 608.53,-103.79"/>
<polygon fill="black" stroke="black" points="605.03,-103.79 608.53,-113.79 612.03,-103.79 605.03,-103.79"/>
</g>
<!-- MapComponent -->
<g id="node4" class="node">
<title>MapComponent</title>
<polygon fill="#ffffb3" stroke="black" points="573.49,-84.8 466.51,-84.8 466.51,-48.8 573.49,-48.8 573.49,-84.8"/>
<text text-anchor="middle" x="520" y="-62.6" font-family="Times,serif" font-size="14.00">MapComponent</text>
</g>
<!-- MapComponent&#45;&gt;AppModule -->
<g id="edge4" class="edge">
<title>MapComponent&#45;&gt;AppModule</title>
<path fill="none" stroke="black" d="M557.83,-84.91C557.83,-84.91 557.83,-103.79 557.83,-103.79"/>
<polygon fill="black" stroke="black" points="554.33,-103.79 557.83,-113.79 561.33,-103.79 554.33,-103.79"/>
</g>
<!-- OrderStatusComponent -->
<g id="node5" class="node">
<title>OrderStatusComponent</title>
<polygon fill="#ffffb3" stroke="black" points="448.2,-84.8 299.8,-84.8 299.8,-48.8 448.2,-48.8 448.2,-84.8"/>
<text text-anchor="middle" x="374" y="-62.6" font-family="Times,serif" font-size="14.00">OrderStatusComponent</text>
</g>
<!-- OrderStatusComponent&#45;&gt;AppModule -->
<g id="edge5" class="edge">
<title>OrderStatusComponent&#45;&gt;AppModule</title>
<path fill="none" stroke="black" d="M374,-84.83C374,-101.2 374,-122.8 374,-122.8 374,-122.8 532.26,-122.8 532.26,-122.8"/>
<polygon fill="black" stroke="black" points="532.26,-126.3 542.26,-122.8 532.26,-119.3 532.26,-126.3"/>
</g>
<!-- StatusComponent -->
<g id="node6" class="node">
<title>StatusComponent</title>
<polygon fill="#ffffb3" stroke="black" points="281.56,-84.8 166.44,-84.8 166.44,-48.8 281.56,-48.8 281.56,-84.8"/>
<text text-anchor="middle" x="224" y="-62.6" font-family="Times,serif" font-size="14.00">StatusComponent</text>
</g>
<!-- StatusComponent&#45;&gt;AppModule -->
<g id="edge6" class="edge">
<title>StatusComponent&#45;&gt;AppModule</title>
<path fill="none" stroke="black" d="M224,-84.91C224,-104.14 224,-131.8 224,-131.8 224,-131.8 532,-131.8 532,-131.8"/>
<polygon fill="black" stroke="black" points="532,-135.3 542,-131.8 532,-128.3 532,-135.3"/>
</g>
<!-- VehicleComponent -->
<g id="node7" class="node">
<title>VehicleComponent</title>
<polygon fill="#ffffb3" stroke="black" points="148.36,-84.8 23.64,-84.8 23.64,-48.8 148.36,-48.8 148.36,-84.8"/>
<text text-anchor="middle" x="86" y="-62.6" font-family="Times,serif" font-size="14.00">VehicleComponent</text>
</g>
<!-- VehicleComponent&#45;&gt;AppModule -->
<g id="edge7" class="edge">
<title>VehicleComponent&#45;&gt;AppModule</title>
<path fill="none" stroke="black" d="M86,-85.09C86,-107.01 86,-140.8 86,-140.8 86,-140.8 531.97,-140.8 531.97,-140.8"/>
<polygon fill="black" stroke="black" points="531.97,-144.3 541.97,-140.8 531.97,-137.3 531.97,-144.3"/>
</g>
<!-- AppComponent  -->
<g id="node10" class="node">
<title>AppComponent </title>
<polygon fill="#80b1d3" stroke="black" points="638.44,-214.8 529.56,-214.8 529.56,-178.8 638.44,-178.8 638.44,-214.8"/>
<text text-anchor="middle" x="584" y="-192.6" font-family="Times,serif" font-size="14.00">AppComponent </text>
</g>
<!-- AppModule&#45;&gt;AppComponent  -->
<g id="edge9" class="edge">
<title>AppModule&#45;&gt;AppComponent </title>
<path fill="none" stroke="black" stroke-dasharray="1,5" d="M584,-149.91C584,-149.91 584,-168.79 584,-168.79"/>
<polygon fill="black" stroke="black" points="580.5,-168.79 584,-178.79 587.5,-168.79 580.5,-168.79"/>
</g>
<!-- AppRoutingModule -->
<g id="node9" class="node">
<title>AppRoutingModule</title>
<polygon fill="#8dd3c7" stroke="black" points="1128.27,-84.8 1125.27,-88.8 1104.27,-88.8 1101.27,-84.8 999.73,-84.8 999.73,-48.8 1128.27,-48.8 1128.27,-84.8"/>
<text text-anchor="middle" x="1064" y="-62.6" font-family="Times,serif" font-size="14.00">AppRoutingModule</text>
</g>
<!-- AppRoutingModule&#45;&gt;AppModule -->
<g id="edge8" class="edge">
<title>AppRoutingModule&#45;&gt;AppModule</title>
<path fill="none" stroke="black" d="M1064,-85.09C1064,-107.01 1064,-140.8 1064,-140.8 1064,-140.8 635.76,-140.8 635.76,-140.8"/>
<polygon fill="black" stroke="black" points="635.76,-137.3 625.76,-140.8 635.76,-144.3 635.76,-137.3"/>
</g>
</g>
</svg>
