<?xml version="1.0" encoding="UTF-8" standalone="no"?>
<!DOCTYPE svg PUBLIC "-//W3C//DTD SVG 1.1//EN"
 "http://www.w3.org/Graphics/SVG/1.1/DTD/svg11.dtd">
<!-- Generated by graphviz version 2.47.3 (20210619.1520)
 -->
<!-- Title: dependencies Pages: 1 -->
<svg width="759pt" height="247pt"
 viewBox="0.00 0.00 759.00 246.80" xmlns="http://www.w3.org/2000/svg" xmlns:xlink="http://www.w3.org/1999/xlink">
<g id="graph0" class="graph" transform="scale(1 1) rotate(0) translate(4 242.8)">
<title>dependencies</title>
<polygon fill="white" stroke="transparent" points="-4,4 -4,-242.8 755,-242.8 755,4 -4,4"/>
<text text-anchor="middle" x="375.5" y="-8.2" font-family="sans-serif" font-size="14.00">dependencies</text>
<g id="clust1" class="cluster">
<title>cluster_AppModule</title>
<polygon fill="none" stroke="black" stroke-dasharray="1,5" points="8,-32.8 8,-230.8 743,-230.8 743,-32.8 8,-32.8"/>
</g>
<g id="clust7" class="cluster">
<title>cluster_AppModule_imports</title>
<polygon fill="none" stroke="black" points="591,-40.8 591,-92.8 735,-92.8 735,-40.8 591,-40.8"/>
</g>
<g id="clust2" class="cluster">
<title>cluster_AppModule_declarations</title>
<polygon fill="none" stroke="black" points="16,-40.8 16,-92.8 583,-92.8 583,-40.8 16,-40.8"/>
</g>
<g id="clust9" class="cluster">
<title>cluster_AppModule_bootstrap</title>
<polygon fill="none" stroke="black" points="314,-170.8 314,-222.8 438,-222.8 438,-170.8 314,-170.8"/>
</g>
<!-- AccountComponent -->
<g id="node1" class="node">
<title>AccountComponent</title>
<polygon fill="#ffffb3" stroke="black" points="575.26,-84.8 446.74,-84.8 446.74,-48.8 575.26,-48.8 575.26,-84.8"/>
<text text-anchor="middle" x="511" y="-62.6" font-family="Times,serif" font-size="14.00">AccountComponent</text>
</g>
<!-- AppModule -->
<g id="node5" class="node">
<title>AppModule</title>
<polygon fill="#8dd3c7" stroke="black" points="417.66,-149.8 414.66,-153.8 393.66,-153.8 390.66,-149.8 334.34,-149.8 334.34,-113.8 417.66,-113.8 417.66,-149.8"/>
<text text-anchor="middle" x="376" y="-127.6" font-family="Times,serif" font-size="14.00">AppModule</text>
</g>
<!-- AccountComponent&#45;&gt;AppModule -->
<g id="edge1" class="edge">
<title>AccountComponent&#45;&gt;AppModule</title>
<path fill="none" stroke="black" d="M511,-84.82C511,-102.17 511,-125.8 511,-125.8 511,-125.8 427.97,-125.8 427.97,-125.8"/>
<polygon fill="black" stroke="black" points="427.97,-122.3 417.97,-125.8 427.97,-129.3 427.97,-122.3"/>
</g>
<!-- AppComponent -->
<g id="node2" class="node">
<title>AppComponent</title>
<polygon fill="#ffffb3" stroke="black" points="428.94,-84.8 323.06,-84.8 323.06,-48.8 428.94,-48.8 428.94,-84.8"/>
<text text-anchor="middle" x="376" y="-62.6" font-family="Times,serif" font-size="14.00">AppComponent</text>
</g>
<!-- AppComponent&#45;&gt;AppModule -->
<g id="edge2" class="edge">
<title>AppComponent&#45;&gt;AppModule</title>
<path fill="none" stroke="black" d="M376,-84.91C376,-84.91 376,-103.79 376,-103.79"/>
<polygon fill="black" stroke="black" points="372.5,-103.79 376,-113.79 379.5,-103.79 372.5,-103.79"/>
</g>
<!-- HomeComponent -->
<g id="node3" class="node">
<title>HomeComponent</title>
<polygon fill="#ffffb3" stroke="black" points="305.55,-84.8 190.45,-84.8 190.45,-48.8 305.55,-48.8 305.55,-84.8"/>
<text text-anchor="middle" x="248" y="-62.6" font-family="Times,serif" font-size="14.00">HomeComponent</text>
</g>
<!-- HomeComponent&#45;&gt;AppModule -->
<g id="edge3" class="edge">
<title>HomeComponent&#45;&gt;AppModule</title>
<path fill="none" stroke="black" d="M248,-84.82C248,-102.17 248,-125.8 248,-125.8 248,-125.8 324.09,-125.8 324.09,-125.8"/>
<polygon fill="black" stroke="black" points="324.09,-129.3 334.09,-125.8 324.09,-122.3 324.09,-129.3"/>
</g>
<!-- OrderStatusComponent -->
<g id="node4" class="node">
<title>OrderStatusComponent</title>
<polygon fill="#ffffb3" stroke="black" points="172.2,-84.8 23.8,-84.8 23.8,-48.8 172.2,-48.8 172.2,-84.8"/>
<text text-anchor="middle" x="98" y="-62.6" font-family="Times,serif" font-size="14.00">OrderStatusComponent</text>
</g>
<!-- OrderStatusComponent&#45;&gt;AppModule -->
<g id="edge4" class="edge">
<title>OrderStatusComponent&#45;&gt;AppModule</title>
<path fill="none" stroke="black" d="M98,-85.08C98,-106.12 98,-137.8 98,-137.8 98,-137.8 324.08,-137.8 324.08,-137.8"/>
<polygon fill="black" stroke="black" points="324.08,-141.3 334.08,-137.8 324.08,-134.3 324.08,-141.3"/>
</g>
<!-- AppComponent  -->
<g id="node7" class="node">
<title>AppComponent </title>
<polygon fill="#80b1d3" stroke="black" points="430.44,-214.8 321.56,-214.8 321.56,-178.8 430.44,-178.8 430.44,-214.8"/>
<text text-anchor="middle" x="376" y="-192.6" font-family="Times,serif" font-size="14.00">AppComponent </text>
</g>
<!-- AppModule&#45;&gt;AppComponent  -->
<g id="edge6" class="edge">
<title>AppModule&#45;&gt;AppComponent </title>
<path fill="none" stroke="black" stroke-dasharray="1,5" d="M376,-149.91C376,-149.91 376,-168.79 376,-168.79"/>
<polygon fill="black" stroke="black" points="372.5,-168.79 376,-178.79 379.5,-168.79 372.5,-168.79"/>
</g>
<!-- AppRoutingModule -->
<g id="node6" class="node">
<title>AppRoutingModule</title>
<polygon fill="#8dd3c7" stroke="black" points="727.27,-84.8 724.27,-88.8 703.27,-88.8 700.27,-84.8 598.73,-84.8 598.73,-48.8 727.27,-48.8 727.27,-84.8"/>
<text text-anchor="middle" x="663" y="-62.6" font-family="Times,serif" font-size="14.00">AppRoutingModule</text>
</g>
<!-- AppRoutingModule&#45;&gt;AppModule -->
<g id="edge5" class="edge">
<title>AppRoutingModule&#45;&gt;AppModule</title>
<path fill="none" stroke="black" d="M663,-85.08C663,-106.12 663,-137.8 663,-137.8 663,-137.8 427.73,-137.8 427.73,-137.8"/>
<polygon fill="black" stroke="black" points="427.73,-134.3 417.73,-137.8 427.73,-141.3 427.73,-134.3"/>
</g>
</g>
</svg>
