<?xml version="1.0" encoding="UTF-8" standalone="no"?>
<!DOCTYPE svg PUBLIC "-//W3C//DTD SVG 1.1//EN"
 "http://www.w3.org/Graphics/SVG/1.1/DTD/svg11.dtd">
<!-- Generated by graphviz version 2.47.3 (20210619.1520)
 -->
<!-- Title: dependencies Pages: 1 -->
<svg width="1160pt" height="247pt"
 viewBox="0.00 0.00 1160.00 246.80" xmlns="http://www.w3.org/2000/svg" xmlns:xlink="http://www.w3.org/1999/xlink">
<g id="graph0" class="graph" transform="scale(1 1) rotate(0) translate(4 242.8)">
<title>dependencies</title>
<polygon fill="white" stroke="transparent" points="-4,4 -4,-242.8 1156,-242.8 1156,4 -4,4"/>
<text text-anchor="middle" x="576" y="-8.2" font-family="sans-serif" font-size="14.00">dependencies</text>
<g id="clust1" class="cluster">
<title>cluster_AppModule</title>
<polygon fill="none" stroke="black" stroke-dasharray="1,5" points="8,-32.8 8,-230.8 1144,-230.8 1144,-32.8 8,-32.8"/>
</g>
<g id="clust2" class="cluster">
<title>cluster_AppModule_declarations</title>
<polygon fill="none" stroke="black" points="168,-40.8 168,-92.8 1136,-92.8 1136,-40.8 168,-40.8"/>
</g>
<g id="clust10" class="cluster">
<title>cluster_AppModule_imports</title>
<polygon fill="none" stroke="black" points="16,-40.8 16,-92.8 160,-92.8 160,-40.8 16,-40.8"/>
</g>
<g id="clust12" class="cluster">
<title>cluster_AppModule_bootstrap</title>
<polygon fill="none" stroke="black" points="537,-170.8 537,-222.8 661,-222.8 661,-170.8 537,-170.8"/>
</g>
<!-- AccountComponent -->
<g id="node1" class="node">
<title>AccountComponent</title>
<polygon fill="#ffffb3" stroke="black" points="1128.26,-84.8 999.74,-84.8 999.74,-48.8 1128.26,-48.8 1128.26,-84.8"/>
<text text-anchor="middle" x="1064" y="-62.6" font-family="Times,serif" font-size="14.00">AccountComponent</text>
</g>
<!-- AppModule -->
<g id="node8" class="node">
<title>AppModule</title>
<polygon fill="#8dd3c7" stroke="black" points="640.66,-149.8 637.66,-153.8 616.66,-153.8 613.66,-149.8 557.34,-149.8 557.34,-113.8 640.66,-113.8 640.66,-149.8"/>
<text text-anchor="middle" x="599" y="-127.6" font-family="Times,serif" font-size="14.00">AppModule</text>
</g>
<!-- AccountComponent&#45;&gt;AppModule -->
<g id="edge1" class="edge">
<title>AccountComponent&#45;&gt;AppModule</title>
<path fill="none" stroke="black" d="M1064,-85.09C1064,-107.01 1064,-140.8 1064,-140.8 1064,-140.8 650.67,-140.8 650.67,-140.8"/>
<polygon fill="black" stroke="black" points="650.67,-137.3 640.67,-140.8 650.67,-144.3 650.67,-137.3"/>
</g>
<!-- AppComponent -->
<g id="node2" class="node">
<title>AppComponent</title>
<polygon fill="#ffffb3" stroke="black" points="981.94,-84.8 876.06,-84.8 876.06,-48.8 981.94,-48.8 981.94,-84.8"/>
<text text-anchor="middle" x="929" y="-62.6" font-family="Times,serif" font-size="14.00">AppComponent</text>
</g>
<!-- AppComponent&#45;&gt;AppModule -->
<g id="edge2" class="edge">
<title>AppComponent&#45;&gt;AppModule</title>
<path fill="none" stroke="black" d="M929,-84.91C929,-104.14 929,-131.8 929,-131.8 929,-131.8 650.79,-131.8 650.79,-131.8"/>
<polygon fill="black" stroke="black" points="650.79,-128.3 640.79,-131.8 650.79,-135.3 650.79,-128.3"/>
</g>
<!-- HomeComponent -->
<g id="node3" class="node">
<title>HomeComponent</title>
<polygon fill="#ffffb3" stroke="black" points="858.55,-84.8 743.45,-84.8 743.45,-48.8 858.55,-48.8 858.55,-84.8"/>
<text text-anchor="middle" x="801" y="-62.6" font-family="Times,serif" font-size="14.00">HomeComponent</text>
</g>
<!-- HomeComponent&#45;&gt;AppModule -->
<g id="edge3" class="edge">
<title>HomeComponent&#45;&gt;AppModule</title>
<path fill="none" stroke="black" d="M801,-84.83C801,-101.2 801,-122.8 801,-122.8 801,-122.8 650.85,-122.8 650.85,-122.8"/>
<polygon fill="black" stroke="black" points="650.85,-119.3 640.85,-122.8 650.85,-126.3 650.85,-119.3"/>
</g>
<!-- MapComponent -->
<g id="node4" class="node">
<title>MapComponent</title>
<polygon fill="#ffffb3" stroke="black" points="725.49,-84.8 618.51,-84.8 618.51,-48.8 725.49,-48.8 725.49,-84.8"/>
<text text-anchor="middle" x="672" y="-62.6" font-family="Times,serif" font-size="14.00">MapComponent</text>
</g>
<!-- MapComponent&#45;&gt;AppModule -->
<g id="edge4" class="edge">
<title>MapComponent&#45;&gt;AppModule</title>
<path fill="none" stroke="black" d="M629.67,-84.91C629.67,-84.91 629.67,-103.79 629.67,-103.79"/>
<polygon fill="black" stroke="black" points="626.17,-103.79 629.67,-113.79 633.17,-103.79 626.17,-103.79"/>
</g>
<!-- OrderStatusComponent -->
<g id="node5" class="node">
<title>OrderStatusComponent</title>
<polygon fill="#ffffb3" stroke="black" points="600.2,-84.8 451.8,-84.8 451.8,-48.8 600.2,-48.8 600.2,-84.8"/>
<text text-anchor="middle" x="526" y="-62.6" font-family="Times,serif" font-size="14.00">OrderStatusComponent</text>
</g>
<!-- OrderStatusComponent&#45;&gt;AppModule -->
<g id="edge5" class="edge">
<title>OrderStatusComponent&#45;&gt;AppModule</title>
<path fill="none" stroke="black" d="M578.64,-84.91C578.64,-84.91 578.64,-103.79 578.64,-103.79"/>
<polygon fill="black" stroke="black" points="575.14,-103.79 578.64,-113.79 582.14,-103.79 575.14,-103.79"/>
</g>
<!-- StatusComponent -->
<g id="node6" class="node">
<title>StatusComponent</title>
<polygon fill="#ffffb3" stroke="black" points="433.56,-84.8 318.44,-84.8 318.44,-48.8 433.56,-48.8 433.56,-84.8"/>
<text text-anchor="middle" x="376" y="-62.6" font-family="Times,serif" font-size="14.00">StatusComponent</text>
</g>
<!-- StatusComponent&#45;&gt;AppModule -->
<g id="edge6" class="edge">
<title>StatusComponent&#45;&gt;AppModule</title>
<path fill="none" stroke="black" d="M376,-84.83C376,-101.2 376,-122.8 376,-122.8 376,-122.8 547.32,-122.8 547.32,-122.8"/>
<polygon fill="black" stroke="black" points="547.32,-126.3 557.32,-122.8 547.32,-119.3 547.32,-126.3"/>
</g>
<!-- VehicleComponent -->
<g id="node7" class="node">
<title>VehicleComponent</title>
<polygon fill="#ffffb3" stroke="black" points="300.36,-84.8 175.64,-84.8 175.64,-48.8 300.36,-48.8 300.36,-84.8"/>
<text text-anchor="middle" x="238" y="-62.6" font-family="Times,serif" font-size="14.00">VehicleComponent</text>
</g>
<!-- VehicleComponent&#45;&gt;AppModule -->
<g id="edge7" class="edge">
<title>VehicleComponent&#45;&gt;AppModule</title>
<path fill="none" stroke="black" d="M238,-84.91C238,-104.14 238,-131.8 238,-131.8 238,-131.8 547.24,-131.8 547.24,-131.8"/>
<polygon fill="black" stroke="black" points="547.24,-135.3 557.24,-131.8 547.24,-128.3 547.24,-135.3"/>
</g>
<!-- AppComponent  -->
<g id="node10" class="node">
<title>AppComponent </title>
<polygon fill="#80b1d3" stroke="black" points="653.44,-214.8 544.56,-214.8 544.56,-178.8 653.44,-178.8 653.44,-214.8"/>
<text text-anchor="middle" x="599" y="-192.6" font-family="Times,serif" font-size="14.00">AppComponent </text>
</g>
<!-- AppModule&#45;&gt;AppComponent  -->
<g id="edge9" class="edge">
<title>AppModule&#45;&gt;AppComponent </title>
<path fill="none" stroke="black" stroke-dasharray="1,5" d="M599,-149.91C599,-149.91 599,-168.79 599,-168.79"/>
<polygon fill="black" stroke="black" points="595.5,-168.79 599,-178.79 602.5,-168.79 595.5,-168.79"/>
</g>
<!-- AppRoutingModule -->
<g id="node9" class="node">
<title>AppRoutingModule</title>
<polygon fill="#8dd3c7" stroke="black" points="152.27,-84.8 149.27,-88.8 128.27,-88.8 125.27,-84.8 23.73,-84.8 23.73,-48.8 152.27,-48.8 152.27,-84.8"/>
<text text-anchor="middle" x="88" y="-62.6" font-family="Times,serif" font-size="14.00">AppRoutingModule</text>
</g>
<!-- AppRoutingModule&#45;&gt;AppModule -->
<g id="edge8" class="edge">
<title>AppRoutingModule&#45;&gt;AppModule</title>
<path fill="none" stroke="black" d="M88,-85.09C88,-107.01 88,-140.8 88,-140.8 88,-140.8 547.18,-140.8 547.18,-140.8"/>
<polygon fill="black" stroke="black" points="547.18,-144.3 557.18,-140.8 547.18,-137.3 547.18,-144.3"/>
</g>
</g>
</svg>
