<?xml version="1.0" encoding="UTF-8" standalone="no"?>
<!DOCTYPE svg PUBLIC "-//W3C//DTD SVG 1.1//EN"
 "http://www.w3.org/Graphics/SVG/1.1/DTD/svg11.dtd">
<!-- Generated by graphviz version 2.47.3 (20210619.1520)
 -->
<!-- Title: dependencies Pages: 1 -->
<svg width="759pt" height="247pt"
 viewBox="0.00 0.00 759.00 246.80" xmlns="http://www.w3.org/2000/svg" xmlns:xlink="http://www.w3.org/1999/xlink">
<g id="graph0" class="graph" transform="scale(1 1) rotate(0) translate(4 242.8)">
<title>dependencies</title>
<polygon fill="white" stroke="transparent" points="-4,4 -4,-242.8 755,-242.8 755,4 -4,4"/>
<text text-anchor="middle" x="375.5" y="-8.2" font-family="sans-serif" font-size="14.00">dependencies</text>
<g id="clust1" class="cluster">
<title>cluster_AppModule</title>
<polygon fill="none" stroke="black" stroke-dasharray="1,5" points="8,-32.8 8,-230.8 743,-230.8 743,-32.8 8,-32.8"/>
</g>
<g id="clust2" class="cluster">
<title>cluster_AppModule_declarations</title>
<polygon fill="none" stroke="black" points="168,-40.8 168,-92.8 735,-92.8 735,-40.8 168,-40.8"/>
</g>
<g id="clust7" class="cluster">
<title>cluster_AppModule_imports</title>
<polygon fill="none" stroke="black" points="16,-40.8 16,-92.8 160,-92.8 160,-40.8 16,-40.8"/>
</g>
<g id="clust9" class="cluster">
<title>cluster_AppModule_bootstrap</title>
<polygon fill="none" stroke="black" points="338,-170.8 338,-222.8 462,-222.8 462,-170.8 338,-170.8"/>
</g>
<!-- AccountComponent -->
<g id="node1" class="node">
<title>AccountComponent</title>
<polygon fill="#ffffb3" stroke="black" points="727.26,-84.8 598.74,-84.8 598.74,-48.8 727.26,-48.8 727.26,-84.8"/>
<text text-anchor="middle" x="663" y="-62.6" font-family="Times,serif" font-size="14.00">AccountComponent</text>
</g>
<!-- AppModule -->
<g id="node5" class="node">
<title>AppModule</title>
<polygon fill="#8dd3c7" stroke="black" points="441.66,-149.8 438.66,-153.8 417.66,-153.8 414.66,-149.8 358.34,-149.8 358.34,-113.8 441.66,-113.8 441.66,-149.8"/>
<text text-anchor="middle" x="400" y="-127.6" font-family="Times,serif" font-size="14.00">AppModule</text>
</g>
<!-- AccountComponent&#45;&gt;AppModule -->
<g id="edge1" class="edge">
<title>AccountComponent&#45;&gt;AppModule</title>
<path fill="none" stroke="black" d="M663,-85.08C663,-106.12 663,-137.8 663,-137.8 663,-137.8 451.67,-137.8 451.67,-137.8"/>
<polygon fill="black" stroke="black" points="451.67,-134.3 441.67,-137.8 451.67,-141.3 451.67,-134.3"/>
</g>
<!-- AppComponent -->
<g id="node2" class="node">
<title>AppComponent</title>
<polygon fill="#ffffb3" stroke="black" points="580.94,-84.8 475.06,-84.8 475.06,-48.8 580.94,-48.8 580.94,-84.8"/>
<text text-anchor="middle" x="528" y="-62.6" font-family="Times,serif" font-size="14.00">AppComponent</text>
</g>
<!-- AppComponent&#45;&gt;AppModule -->
<g id="edge2" class="edge">
<title>AppComponent&#45;&gt;AppModule</title>
<path fill="none" stroke="black" d="M528,-84.82C528,-102.17 528,-125.8 528,-125.8 528,-125.8 451.91,-125.8 451.91,-125.8"/>
<polygon fill="black" stroke="black" points="451.91,-122.3 441.91,-125.8 451.91,-129.3 451.91,-122.3"/>
</g>
<!-- HomeComponent -->
<g id="node3" class="node">
<title>HomeComponent</title>
<polygon fill="#ffffb3" stroke="black" points="457.55,-84.8 342.45,-84.8 342.45,-48.8 457.55,-48.8 457.55,-84.8"/>
<text text-anchor="middle" x="400" y="-62.6" font-family="Times,serif" font-size="14.00">HomeComponent</text>
</g>
<!-- HomeComponent&#45;&gt;AppModule -->
<g id="edge3" class="edge">
<title>HomeComponent&#45;&gt;AppModule</title>
<path fill="none" stroke="black" d="M400,-84.91C400,-84.91 400,-103.79 400,-103.79"/>
<polygon fill="black" stroke="black" points="396.5,-103.79 400,-113.79 403.5,-103.79 396.5,-103.79"/>
</g>
<!-- OrderStatusComponent -->
<g id="node4" class="node">
<title>OrderStatusComponent</title>
<polygon fill="#ffffb3" stroke="black" points="324.2,-84.8 175.8,-84.8 175.8,-48.8 324.2,-48.8 324.2,-84.8"/>
<text text-anchor="middle" x="250" y="-62.6" font-family="Times,serif" font-size="14.00">OrderStatusComponent</text>
</g>
<!-- OrderStatusComponent&#45;&gt;AppModule -->
<g id="edge4" class="edge">
<title>OrderStatusComponent&#45;&gt;AppModule</title>
<path fill="none" stroke="black" d="M250,-84.82C250,-102.17 250,-125.8 250,-125.8 250,-125.8 348.22,-125.8 348.22,-125.8"/>
<polygon fill="black" stroke="black" points="348.22,-129.3 358.22,-125.8 348.22,-122.3 348.22,-129.3"/>
</g>
<!-- AppComponent  -->
<g id="node7" class="node">
<title>AppComponent </title>
<polygon fill="#80b1d3" stroke="black" points="454.44,-214.8 345.56,-214.8 345.56,-178.8 454.44,-178.8 454.44,-214.8"/>
<text text-anchor="middle" x="400" y="-192.6" font-family="Times,serif" font-size="14.00">AppComponent </text>
</g>
<!-- AppModule&#45;&gt;AppComponent  -->
<g id="edge6" class="edge">
<title>AppModule&#45;&gt;AppComponent </title>
<path fill="none" stroke="black" stroke-dasharray="1,5" d="M400,-149.91C400,-149.91 400,-168.79 400,-168.79"/>
<polygon fill="black" stroke="black" points="396.5,-168.79 400,-178.79 403.5,-168.79 396.5,-168.79"/>
</g>
<!-- AppRoutingModule -->
<g id="node6" class="node">
<title>AppRoutingModule</title>
<polygon fill="#8dd3c7" stroke="black" points="152.27,-84.8 149.27,-88.8 128.27,-88.8 125.27,-84.8 23.73,-84.8 23.73,-48.8 152.27,-48.8 152.27,-84.8"/>
<text text-anchor="middle" x="88" y="-62.6" font-family="Times,serif" font-size="14.00">AppRoutingModule</text>
</g>
<!-- AppRoutingModule&#45;&gt;AppModule -->
<g id="edge5" class="edge">
<title>AppRoutingModule&#45;&gt;AppModule</title>
<path fill="none" stroke="black" d="M88,-85.08C88,-106.12 88,-137.8 88,-137.8 88,-137.8 348.25,-137.8 348.25,-137.8"/>
<polygon fill="black" stroke="black" points="348.25,-141.3 358.25,-137.8 348.25,-134.3 348.25,-141.3"/>
</g>
</g>
</svg>
